<?xml version="1.0" encoding="UTF-8"?>
<svg xmlns="http://www.w3.org/2000/svg" width="1280" height="720" viewBox="0 0 1280 720" data-pptx-master="warmdoc-master" data-pptx-master-name="Warm Document" data-pptx-layout="05_two_column" data-pptx-layout-name="Two Column">
  <!-- Warm Document — 05 Two column -->
  <rect id="master-bg" width="1280" height="720" fill="#ffffff" data-pptx-layer="master" data-pptx-editable="false"/>
  <line id="layout-column-divider" x1="636" y1="108" x2="636" y2="572" stroke="#e5e3df" stroke-width="1" data-pptx-layer="layout" data-pptx-editable="false"/>

  <g id="title-slot" data-pptx-placeholder="title" data-pptx-placeholder-bounds="88 108 1104 54">
    <text id="title-carrier" data-pptx-placeholder-carrier="true" x="88" y="150" font-family="'Pretendard SemiBold', Pretendard, 'Malgun Gothic', sans-serif" font-size="38" letter-spacing="-1" fill="#1a1a1a">{{TITLE}}</text>
  </g>

  <g id="column-lead">
    <text x="88" y="196" font-family="Pretendard, 'Malgun Gothic', sans-serif" font-size="22" letter-spacing="-0.2" fill="#787671">{{LEAD}}</text>
  </g>

  <g id="column-body">
    <text x="88" y="280" font-family="Pretendard, 'Malgun Gothic', sans-serif" font-size="20" letter-spacing="-0.1" fill="#37352f">{{BODY}}</text>
  </g>

  <g id="column-points">
    <line x1="88" y1="330" x2="572" y2="330" stroke="#e5e3df" stroke-width="1"/>
    <circle cx="96" cy="368" r="4" fill="#5645d4"/>
    <text x="114" y="376" font-family="Pretendard, 'Malgun Gothic', sans-serif" font-size="20" letter-spacing="-0.1" fill="#1a1a1a">{{POINT_1}}</text>
    <line x1="88" y1="408" x2="572" y2="408" stroke="#e5e3df" stroke-width="1"/>
    <circle cx="96" cy="446" r="4" fill="#787671"/>
    <text x="114" y="454" font-family="Pretendard, 'Malgun Gothic', sans-serif" font-size="20" letter-spacing="-0.1" fill="#37352f">{{POINT_2}}</text>
    <line x1="88" y1="486" x2="572" y2="486" stroke="#e5e3df" stroke-width="1"/>
    <circle cx="96" cy="524" r="4" fill="#787671"/>
    <text x="114" y="532" font-family="Pretendard, 'Malgun Gothic', sans-serif" font-size="20" letter-spacing="-0.1" fill="#37352f">{{POINT_3}}</text>
    <line x1="88" y1="564" x2="572" y2="564" stroke="#e5e3df" stroke-width="1"/>
  </g>

  <g id="side-stack">
    <rect x="700" y="192" width="492" height="112" rx="12" fill="#ffffff" stroke="#e5e3df" stroke-width="1"/>
    <rect x="732" y="224" width="48" height="48" rx="10" fill="#e6e0f5"/>
    <rect x="804" y="234" width="180" height="10" rx="5" fill="#1a1a1a"/>
    <rect x="804" y="258" width="276" height="8" rx="4" fill="#e5e3df"/>
    <rect x="700" y="328" width="492" height="112" rx="12" fill="#ffffff" stroke="#e5e3df" stroke-width="1"/>
    <rect x="732" y="360" width="48" height="48" rx="10" fill="#d9f3e1"/>
    <rect x="804" y="370" width="148" height="10" rx="5" fill="#37352f"/>
    <rect x="804" y="394" width="236" height="8" rx="4" fill="#e5e3df"/>
    <rect x="700" y="464" width="492" height="112" rx="12" fill="#ffffff" stroke="#e5e3df" stroke-width="1"/>
    <rect x="732" y="496" width="48" height="48" rx="10" fill="#ffe8d4"/>
    <rect x="804" y="506" width="124" height="10" rx="5" fill="#37352f"/>
    <rect x="804" y="530" width="200" height="8" rx="4" fill="#e5e3df"/>
  </g>

  <g id="page-foot">
    <text x="88" y="672" font-family="'Pretendard Medium', Pretendard, 'Malgun Gothic', sans-serif" font-size="13" fill="#787671">{{BRAND_MARK}}</text>
    <text x="1192" y="672" text-anchor="end" font-family="Pretendard, 'Malgun Gothic', sans-serif" font-size="13" fill="#787671">{{PAGE_LABEL}}</text>
  </g>
</svg>
