<?xml version="1.0" encoding="UTF-8"?>
<svg xmlns="http://www.w3.org/2000/svg" width="1280" height="720" viewBox="0 0 1280 720" data-pptx-master="openroad-master" data-pptx-master-name="Open Road" data-pptx-layout="chart_linear" data-pptx-layout-name="Chart (Linear)">
  <!-- Open Road — 09 Line chart — sample data; regenerated with real data at deck generation -->
  <rect id="master-bg" width="1280" height="720" fill="#FFFFFF" data-pptx-layer="master" data-pptx-editable="false"/>

  <g id="title-slot" data-pptx-placeholder="title" data-pptx-placeholder-bounds="96 112 690 56">
    <text id="title-carrier" data-pptx-placeholder-carrier="true" x="96" y="156" font-family="'Pretendard Medium', Pretendard, 'Malgun Gothic', sans-serif" font-size="40" letter-spacing="-1" fill="#171A20">{{TITLE}}</text>
  </g>

  <g id="chart-legend">
    <line x1="880" y1="144" x2="904" y2="144" stroke="#3E6AE1" stroke-width="2.5"/>
    <text x="914" y="150" font-family="Pretendard, 'Malgun Gothic', sans-serif" font-size="16" fill="#5C5E62">{{LEGEND_SERIES_A}}</text>
    <line x1="1040" y1="144" x2="1064" y2="144" stroke="#8E8E8E" stroke-width="2" stroke-dasharray="4 4"/>
    <text x="1074" y="150" font-family="Pretendard, 'Malgun Gothic', sans-serif" font-size="16" fill="#5C5E62">{{LEGEND_SERIES_B}}</text>
  </g>

  <!-- chart-plot-area: 184,250,1184,540 -->
  <g id="chart-body">
    <g id="chart-grid" stroke="#EEEEEE" stroke-width="1">
      <line x1="184" y1="250" x2="1184" y2="250"/>
      <line x1="184" y1="322" x2="1184" y2="322"/>
      <line x1="184" y1="395" x2="1184" y2="395"/>
      <line x1="184" y1="467" x2="1184" y2="467"/>
      <line x1="184" y1="540" x2="1184" y2="540"/>
    </g>

    <g id="chart-y-axis" text-anchor="end" font-family="Pretendard, 'Malgun Gothic', sans-serif" font-size="16" fill="#5C5E62">
      <text x="170" y="256">100</text>
      <text x="170" y="328">75</text>
      <text x="170" y="401">50</text>
      <text x="170" y="473">25</text>
      <text x="170" y="546">0</text>
    </g>

    <g id="chart-series-b">
      <path d="M 240 500 L 417 490 L 594 470 L 771 455 L 948 440 L 1125 430" fill="none" stroke="#8E8E8E" stroke-width="2" stroke-dasharray="5 5" stroke-linecap="round" stroke-linejoin="round"/>
    </g>

    <g id="chart-series-a">
      <path d="M 240 470 L 417 440 L 594 400 L 771 350 L 948 320 L 1125 290" fill="none" stroke="#3E6AE1" stroke-width="2.5" stroke-linecap="round" stroke-linejoin="round"/>
      <circle cx="240" cy="470" r="4" fill="#FFFFFF" stroke="#3E6AE1" stroke-width="2.5"/>
      <circle cx="417" cy="440" r="4" fill="#FFFFFF" stroke="#3E6AE1" stroke-width="2.5"/>
      <circle cx="594" cy="400" r="4" fill="#FFFFFF" stroke="#3E6AE1" stroke-width="2.5"/>
      <circle cx="771" cy="350" r="4" fill="#FFFFFF" stroke="#3E6AE1" stroke-width="2.5"/>
      <circle cx="948" cy="320" r="4" fill="#FFFFFF" stroke="#3E6AE1" stroke-width="2.5"/>
      <circle cx="1125" cy="290" r="5" fill="#3E6AE1"/>
    </g>

    <g id="chart-x-axis" text-anchor="middle" font-family="Pretendard, 'Malgun Gothic', sans-serif" font-size="16" fill="#5C5E62">
      <text x="240" y="572">01</text>
      <text x="417" y="572">02</text>
      <text x="594" y="572">03</text>
      <text x="771" y="572">04</text>
      <text x="948" y="572">05</text>
      <text x="1125" y="572">06</text>
    </g>
  </g>

  <g id="page-foot">
    <text x="96" y="672" font-family="'Pretendard Medium', Pretendard, 'Malgun Gothic', sans-serif" font-size="13" fill="#5C5E62">{{BRAND_MARK}}</text>
    <text x="1184" y="672" text-anchor="end" font-family="Pretendard, 'Malgun Gothic', sans-serif" font-size="13" fill="#5C5E62">{{PAGE_LABEL}}</text>
  </g>
</svg>
