<?xml version="1.0" encoding="UTF-8"?>
<svg xmlns="http://www.w3.org/2000/svg" width="1280" height="720" viewBox="0 0 1280 720" data-pptx-master="polarity-master" data-pptx-master-name="Polarity Mono" data-pptx-layout="chart_linear" data-pptx-layout-name="Chart (Linear)">
  <!-- Polarity Mono — 09 Line chart — sample data; regenerated with real data at deck generation -->
  <rect id="master-bg" width="1280" height="720" fill="#fafafa" data-pptx-layer="master" data-pptx-editable="false"/>

  <g id="title-slot" data-pptx-placeholder="title" data-pptx-placeholder-bounds="72 108 700 58">
    <text id="title-carrier" data-pptx-placeholder-carrier="true" x="72" y="154" font-family="'Pretendard SemiBold', Pretendard, 'Malgun Gothic', sans-serif" font-size="42" letter-spacing="-1.3" fill="#171717">{{TITLE}}</text>
  </g>

  <g id="chart-legend">
    <line x1="880" y1="144" x2="904" y2="144" stroke="#171717" stroke-width="2.5"/>
    <text x="914" y="150" font-family="Pretendard, 'Malgun Gothic', sans-serif" font-size="16" fill="#888888">{{LEGEND_SERIES_A}}</text>
    <line x1="1040" y1="144" x2="1064" y2="144" stroke="#888888" stroke-width="2" stroke-dasharray="4 4"/>
    <text x="1074" y="150" font-family="Pretendard, 'Malgun Gothic', sans-serif" font-size="16" fill="#888888">{{LEGEND_SERIES_B}}</text>
  </g>

  <!-- chart-plot-area: 160,250,1208,540 -->
  <g id="chart-body">
    <g id="chart-grid" stroke="#ebebeb" stroke-width="1">
      <line x1="160" y1="250" x2="1208" y2="250"/>
      <line x1="160" y1="322" x2="1208" y2="322"/>
      <line x1="160" y1="395" x2="1208" y2="395"/>
      <line x1="160" y1="467" x2="1208" y2="467"/>
      <line x1="160" y1="540" x2="1208" y2="540"/>
    </g>

    <g id="chart-y-axis" text-anchor="end" font-family="Pretendard, 'Malgun Gothic', sans-serif" font-size="16" fill="#888888">
      <text x="146" y="256">100</text>
      <text x="146" y="328">75</text>
      <text x="146" y="401">50</text>
      <text x="146" y="473">25</text>
      <text x="146" y="546">0</text>
    </g>

    <g id="chart-series-b">
      <path d="M 219 500 L 405 490 L 591 470 L 777 455 L 963 440 L 1149 430" fill="none" stroke="#888888" stroke-width="2" stroke-dasharray="5 5" stroke-linecap="round" stroke-linejoin="round"/>
    </g>

    <g id="chart-series-a">
      <path d="M 219 470 L 405 440 L 591 400 L 777 350 L 963 320 L 1149 290" fill="none" stroke="#171717" stroke-width="2.5" stroke-linecap="round" stroke-linejoin="round"/>
      <circle cx="219" cy="470" r="4" fill="#fafafa" stroke="#171717" stroke-width="2.5"/>
      <circle cx="405" cy="440" r="4" fill="#fafafa" stroke="#171717" stroke-width="2.5"/>
      <circle cx="591" cy="400" r="4" fill="#fafafa" stroke="#171717" stroke-width="2.5"/>
      <circle cx="777" cy="350" r="4" fill="#fafafa" stroke="#171717" stroke-width="2.5"/>
      <circle cx="963" cy="320" r="4" fill="#fafafa" stroke="#171717" stroke-width="2.5"/>
      <circle cx="1149" cy="290" r="5" fill="#171717"/>
    </g>

    <g id="chart-x-axis" text-anchor="middle" font-family="Pretendard, 'Malgun Gothic', sans-serif" font-size="16" fill="#888888">
      <text x="219" y="572">01</text>
      <text x="405" y="572">02</text>
      <text x="591" y="572">03</text>
      <text x="777" y="572">04</text>
      <text x="963" y="572">05</text>
      <text x="1149" y="572">06</text>
    </g>
  </g>

  <g id="page-foot">
    <text x="72" y="676" font-family="'Pretendard Medium', Pretendard, 'Malgun Gothic', sans-serif" font-size="13" fill="#888888">{{BRAND_MARK}}</text>
    <text x="1208" y="676" text-anchor="end" font-family="Pretendard, 'Malgun Gothic', sans-serif" font-size="13" fill="#888888">{{PAGE_LABEL}}</text>
  </g>
</svg>
